<mxfile host="app.diagrams.net" modified="2022-06-04T12:40:10.073Z" agent="5.0 (Windows)" etag="uMQ-HT_CeP-bg0qE4id-" version="19.0.0" type="github">
  <diagram id="Vgr4V98iy7H3mkGHoCvp" name="Pagina-1">
    <mxGraphModel dx="563" dy="322" grid="1" gridSize="10" guides="1" tooltips="1" connect="1" arrows="1" fold="1" page="1" pageScale="1" pageWidth="1169" pageHeight="827" math="1" shadow="0">
      <root>
        <mxCell id="0" />
        <mxCell id="1" parent="0" />
        <mxCell id="Vg_-dY5ANIHzuDw8YEnt-4" style="edgeStyle=none;rounded=0;orthogonalLoop=1;jettySize=auto;html=1;entryX=0;entryY=0.5;entryDx=0;entryDy=0;fontColor=#fff;exitX=1;exitY=0.5;exitDx=0;exitDy=0;" edge="1" parent="1" source="Vg_-dY5ANIHzuDw8YEnt-1" target="Vg_-dY5ANIHzuDw8YEnt-3">
          <mxGeometry relative="1" as="geometry">
            <mxPoint x="300" y="75" as="sourcePoint" />
          </mxGeometry>
        </mxCell>
        <mxCell id="Vg_-dY5ANIHzuDw8YEnt-6" style="edgeStyle=orthogonalEdgeStyle;rounded=0;orthogonalLoop=1;jettySize=auto;html=1;entryX=0.5;entryY=0;entryDx=0;entryDy=0;fontColor=#000000;" edge="1" parent="1" source="Vg_-dY5ANIHzuDw8YEnt-1" target="Vg_-dY5ANIHzuDw8YEnt-5">
          <mxGeometry relative="1" as="geometry">
            <Array as="points">
              <mxPoint x="240" y="180" />
              <mxPoint x="350" y="180" />
            </Array>
          </mxGeometry>
        </mxCell>
        <mxCell id="Vg_-dY5ANIHzuDw8YEnt-10" style="edgeStyle=orthogonalEdgeStyle;rounded=0;orthogonalLoop=1;jettySize=auto;html=1;entryX=0.5;entryY=0;entryDx=0;entryDy=0;fontColor=#000000;" edge="1" parent="1" source="Vg_-dY5ANIHzuDw8YEnt-1" target="Vg_-dY5ANIHzuDw8YEnt-9">
          <mxGeometry relative="1" as="geometry">
            <Array as="points">
              <mxPoint x="240" y="180" />
              <mxPoint x="100" y="180" />
            </Array>
          </mxGeometry>
        </mxCell>
        <mxCell id="Vg_-dY5ANIHzuDw8YEnt-1" value="DIODI" style="whiteSpace=wrap;html=1;fillColor=#0000CC;strokeColor=default;fontColor=#fff;" vertex="1" parent="1">
          <mxGeometry x="180" y="90" width="120" height="50" as="geometry" />
        </mxCell>
        <mxCell id="Vg_-dY5ANIHzuDw8YEnt-3" value="&lt;div style=&quot;font-size: 13px;&quot; align=&quot;left&quot;&gt;&lt;font style=&quot;font-size: 13px;&quot;&gt;è un dispositivo elettronico con:&lt;br&gt;&lt;/font&gt;&lt;/div&gt;&lt;font style=&quot;font-size: 13px;&quot;&gt;- 2 terminali (bipolo)&lt;br&gt;- relazione \(v-i\) non-lineare&lt;/font&gt;" style="whiteSpace=wrap;html=1;strokeColor=#666666;fillColor=#f5f5f5;align=left;fontColor=#333333;" vertex="1" parent="1">
          <mxGeometry x="370" y="20" width="190" height="70" as="geometry" />
        </mxCell>
        <mxCell id="Vg_-dY5ANIHzuDw8YEnt-18" style="edgeStyle=orthogonalEdgeStyle;rounded=0;orthogonalLoop=1;jettySize=auto;html=1;entryX=0.5;entryY=0;entryDx=0;entryDy=0;fontSize=11;fontColor=#000000;endArrow=none;endFill=0;" edge="1" parent="1" source="Vg_-dY5ANIHzuDw8YEnt-5" target="Vg_-dY5ANIHzuDw8YEnt-16">
          <mxGeometry relative="1" as="geometry" />
        </mxCell>
        <mxCell id="Vg_-dY5ANIHzuDw8YEnt-19" style="edgeStyle=orthogonalEdgeStyle;rounded=0;orthogonalLoop=1;jettySize=auto;html=1;entryX=0.5;entryY=0;entryDx=0;entryDy=0;fontSize=11;fontColor=#000000;endArrow=none;endFill=0;" edge="1" parent="1" source="Vg_-dY5ANIHzuDw8YEnt-5" target="Vg_-dY5ANIHzuDw8YEnt-17">
          <mxGeometry relative="1" as="geometry" />
        </mxCell>
        <mxCell id="Vg_-dY5ANIHzuDw8YEnt-5" value="A GIUNZIONE" style="whiteSpace=wrap;html=1;fontColor=#000000;strokeColor=#2D7600;fillColor=#66ff66;" vertex="1" parent="1">
          <mxGeometry x="300" y="210" width="100" height="30" as="geometry" />
        </mxCell>
        <mxCell id="Vg_-dY5ANIHzuDw8YEnt-15" style="edgeStyle=orthogonalEdgeStyle;rounded=0;orthogonalLoop=1;jettySize=auto;html=1;entryX=0;entryY=0.5;entryDx=0;entryDy=0;fontColor=#000000;" edge="1" parent="1" source="Vg_-dY5ANIHzuDw8YEnt-9" target="Vg_-dY5ANIHzuDw8YEnt-13">
          <mxGeometry relative="1" as="geometry">
            <Array as="points">
              <mxPoint x="30" y="280" />
              <mxPoint x="60" y="280" />
            </Array>
          </mxGeometry>
        </mxCell>
        <mxCell id="Vg_-dY5ANIHzuDw8YEnt-9" value="ESPRESSIONE ANALITICA" style="whiteSpace=wrap;html=1;fontColor=#000000;strokeColor=#2D7600;fillColor=#66ff66;" vertex="1" parent="1">
          <mxGeometry x="20" y="210" width="160" height="30" as="geometry" />
        </mxCell>
        <mxCell id="Vg_-dY5ANIHzuDw8YEnt-13" value="&lt;font style=&quot;font-size: 11px;&quot;&gt;$$i_D = I_S (e^{v_D/{\eta V_T}} - 1)$$&lt;/font&gt;" style="text;fontColor=#000000;html=1;whiteSpace=wrap;align=center;verticalAlign=middle;" vertex="1" parent="1">
          <mxGeometry x="60" y="260" width="140" height="40" as="geometry" />
        </mxCell>
        <mxCell id="Vg_-dY5ANIHzuDw8YEnt-27" style="edgeStyle=none;rounded=0;orthogonalLoop=1;jettySize=auto;html=1;entryX=0.5;entryY=0;entryDx=0;entryDy=0;fontSize=13;fontColor=#000000;endArrow=block;endFill=1;" edge="1" parent="1" source="Vg_-dY5ANIHzuDw8YEnt-16" target="Vg_-dY5ANIHzuDw8YEnt-21">
          <mxGeometry relative="1" as="geometry" />
        </mxCell>
        <mxCell id="Vg_-dY5ANIHzuDw8YEnt-16" value="$$v_D &amp;gt; 0$$" style="whiteSpace=wrap;html=1;fontSize=11;strokeColor=#d79b00;fillColor=#ffe6cc;" vertex="1" parent="1">
          <mxGeometry x="250" y="280" width="50" height="20" as="geometry" />
        </mxCell>
        <mxCell id="Vg_-dY5ANIHzuDw8YEnt-31" style="edgeStyle=none;rounded=0;orthogonalLoop=1;jettySize=auto;html=1;entryX=0.5;entryY=0;entryDx=0;entryDy=0;fontSize=13;fontColor=#000000;endArrow=block;endFill=1;" edge="1" parent="1" source="Vg_-dY5ANIHzuDw8YEnt-17" target="Vg_-dY5ANIHzuDw8YEnt-22">
          <mxGeometry relative="1" as="geometry" />
        </mxCell>
        <mxCell id="Vg_-dY5ANIHzuDw8YEnt-17" value="$$v_D &amp;lt; 0$$" style="whiteSpace=wrap;html=1;fontSize=11;strokeColor=#d79b00;fillColor=#ffe6cc;" vertex="1" parent="1">
          <mxGeometry x="400" y="280" width="50" height="20" as="geometry" />
        </mxCell>
        <mxCell id="Vg_-dY5ANIHzuDw8YEnt-21" value="POLARIZZAZIONE DIRETTA&lt;br&gt;&lt;div&gt;&lt;font style=&quot;font-size: 10px;&quot;&gt;la corrente crece&amp;nbsp; rapidamente con \(v_D\).&lt;/font&gt;&lt;/div&gt;&lt;div&gt;&lt;font style=&quot;font-size: 10px;&quot;&gt;La curva è quasi verticale per \( v_D = V_\gamma \cong 0.6V-0.7V \).&lt;/font&gt;&lt;/div&gt;" style="whiteSpace=wrap;html=1;fontSize=11;fontColor=#000000;strokeColor=#2D7600;fillColor=#66ff66;verticalAlign=middle;" vertex="1" parent="1">
          <mxGeometry x="170" y="340" width="160" height="70" as="geometry" />
        </mxCell>
        <mxCell id="Vg_-dY5ANIHzuDw8YEnt-22" value="&lt;div style=&quot;font-size: 12px;&quot;&gt;POLARIZZAZIONE INVERSA&lt;/div&gt;&lt;div&gt;la corrente satura ad un calore negativo molto piccolo (pA-fA) in modulo (\(-I_S \))&lt;br&gt;&lt;/div&gt;" style="whiteSpace=wrap;html=1;fontSize=11;fontColor=#000000;strokeColor=#2D7600;fillColor=#66ff66;verticalAlign=middle;" vertex="1" parent="1">
          <mxGeometry x="360" y="340" width="160" height="70" as="geometry" />
        </mxCell>
        <mxCell id="Vg_-dY5ANIHzuDw8YEnt-23" value="" style="shape=image;imageAspect=0;aspect=fixed;verticalLabelPosition=bottom;verticalAlign=top;fontSize=11;fontColor=#000000;strokeColor=#2D7600;fillColor=#66ff66;html=1;image=https://raw.githubusercontent.com/BCPTe/SETM/main/images/03/diodo_simbolo.png;imageBorder=none;" vertex="1" parent="1">
          <mxGeometry x="561" y="13.48" width="63.63" height="83.05" as="geometry" />
        </mxCell>
        <mxCell id="Vg_-dY5ANIHzuDw8YEnt-34" value="&lt;div style=&quot;font-size: 11px;&quot; align=&quot;left&quot;&gt;&lt;font style=&quot;font-size: 11px;&quot;&gt;con:&lt;/font&gt;&lt;/div&gt;&lt;div style=&quot;font-size: 11px;&quot; align=&quot;left&quot;&gt;&lt;font style=&quot;font-size: 11px;&quot;&gt;\(I_S\) → corrente di saturazione inversa&lt;/font&gt;&lt;/div&gt;&lt;div style=&quot;font-size: 11px;&quot; align=&quot;left&quot;&gt;&lt;font style=&quot;font-size: 11px;&quot;&gt;\( V_T = \frac{kT}{q} \) → circa 26mV @ 300K&lt;br&gt;&lt;/font&gt;&lt;/div&gt;&lt;div style=&quot;font-size: 11px;&quot; align=&quot;left&quot;&gt;&lt;font style=&quot;font-size: 11px;&quot;&gt;\(T\) → temperatura di Boltzmann&lt;/font&gt;&lt;/div&gt;&lt;div style=&quot;font-size: 11px;&quot; align=&quot;left&quot;&gt;&lt;font style=&quot;font-size: 11px;&quot;&gt;\(k\) → costante di Boltzmann&lt;/font&gt;&lt;/div&gt;&lt;div style=&quot;font-size: 11px;&quot; align=&quot;left&quot;&gt;&lt;font style=&quot;font-size: 11px;&quot;&gt;\(q\) → carica elementare&lt;/font&gt;&lt;/div&gt;&lt;div style=&quot;font-size: 11px;&quot; align=&quot;left&quot;&gt;&lt;font style=&quot;font-size: 11px;&quot;&gt;\( \eta \) → fattore di non-idealità (\( 1 \le \eta \le 2\), cresce con \( i_D \)&lt;br&gt;&lt;/font&gt;&lt;/div&gt;" style="whiteSpace=wrap;html=1;fontSize=12;fontColor=#333333;strokeColor=#666666;fillColor=#f5f5f5;align=left;" vertex="1" parent="1">
          <mxGeometry x="20" y="430" width="200" height="130" as="geometry" />
        </mxCell>
      </root>
    </mxGraphModel>
  </diagram>
</mxfile>
